<svg preserveAspectRatio="none" width="100%" height="100%" overflow="visible" style="display: block;" viewBox="0 0 93 26" fill="none" xmlns="http://www.w3.org/2000/svg">
<g id="Frame 31">
<g id="Pagemate">
<path d="M0 20.2639V4H6.46038C7.61994 4 8.60632 4.18824 9.41951 4.56472C10.2327 4.9412 10.8501 5.48333 11.2718 6.19111C11.7085 6.89889 11.9269 7.74973 11.9269 8.74364C11.9269 9.73754 11.7085 10.5959 11.2718 11.3188C10.8501 12.0265 10.2327 12.5762 9.41951 12.9677C8.60632 13.3593 7.61994 13.555 6.46038 13.555H1.35533V11.9287H6.39262C7.59735 11.9287 8.50843 11.6576 9.12586 11.1155C9.75834 10.5583 10.0746 9.76766 10.0746 8.74364C10.0746 7.71962 9.76587 6.94407 9.14845 6.417C8.53102 5.88993 7.61241 5.62639 6.39262 5.62639H1.85228V20.2639H0Z" fill="var(--fill-0, #0B3668)"/>
<path d="M19.5377 20.2639C19.4774 20.0079 19.4323 19.7142 19.4022 19.3829C19.3871 19.0516 19.3796 18.63 19.3796 18.118H19.2666V12.6063C19.2666 11.7329 19.0633 11.0929 18.6567 10.6863C18.2652 10.2646 17.6252 10.0538 16.7367 10.0538C15.8632 10.0538 15.163 10.2345 14.6359 10.5959C14.1239 10.9423 13.8378 11.4392 13.7776 12.0868H12.0382C12.1135 10.9724 12.5803 10.099 13.4387 9.46648C14.2971 8.83399 15.419 8.51775 16.8044 8.51775C18.2351 8.51775 19.2967 8.85658 19.9895 9.53425C20.6822 10.2119 21.0285 11.2284 21.0285 12.5837V18.118C21.0285 18.4493 21.0511 18.7956 21.0963 19.1571C21.1415 19.5034 21.2017 19.8724 21.277 20.2639H19.5377ZM15.5847 20.4898C14.395 20.4898 13.4463 20.2037 12.7385 19.6314C12.0457 19.0441 11.6994 18.246 11.6994 17.237C11.6994 16.228 12.0457 15.445 12.7385 14.8878C13.4312 14.3306 14.4402 13.9391 15.7654 13.7132L19.7862 13.0355V14.5264L16.0364 15.1137C15.1931 15.2492 14.5531 15.4751 14.1164 15.7913C13.6797 16.1076 13.4613 16.5669 13.4613 17.1692C13.4613 17.7566 13.6571 18.2008 14.0486 18.502C14.4552 18.8032 15.0501 18.9538 15.8331 18.9538C16.8421 18.9538 17.6628 18.7279 18.2953 18.2761C18.9428 17.8093 19.2666 17.2069 19.2666 16.469L19.5603 18.0728C19.3193 18.8408 18.845 19.4356 18.1372 19.8573C17.4445 20.279 16.5936 20.4898 15.5847 20.4898Z" fill="var(--fill-0, #0B3668)"/>
<path d="M27.5161 25.1205C26.1457 25.1205 25.0012 24.7967 24.0826 24.1492C23.1791 23.5167 22.6294 22.6734 22.4336 21.6192H24.1504C24.316 22.2216 24.685 22.696 25.2572 23.0423C25.8445 23.4037 26.6351 23.5845 27.629 23.5845C28.8037 23.5845 29.6922 23.2607 30.2945 22.6131C30.8969 21.9806 31.1981 21.047 31.1981 19.8121V17.35L31.424 17.3951C31.168 18.2686 30.6559 18.9688 29.8879 19.4959C29.1199 20.0079 28.2088 20.2639 27.1547 20.2639C26.1457 20.2639 25.2572 20.023 24.4892 19.5411C23.7212 19.0441 23.1264 18.3589 22.7047 17.4855C22.283 16.6121 22.0722 15.5956 22.0722 14.436C22.0722 13.2614 22.2906 12.2298 22.7273 11.3413C23.164 10.4529 23.7739 9.76766 24.557 9.28577C25.3551 8.78882 26.2813 8.54034 27.3354 8.54034C28.4197 8.54034 29.3232 8.80387 30.046 9.33095C30.7839 9.85802 31.2734 10.611 31.5143 11.5898L31.311 11.6124V8.74364H33.0052V19.8121C33.0052 21.4536 32.5157 22.7487 31.5369 23.6974C30.5581 24.6461 29.2178 25.1205 27.5161 25.1205ZM27.6065 18.7053C28.7359 18.7053 29.6319 18.3137 30.2945 17.5307C30.9571 16.7476 31.2884 15.6859 31.2884 14.3456C31.2884 13.0355 30.9571 12.0039 30.2945 11.251C29.6319 10.483 28.7359 10.099 27.6065 10.099C26.462 10.099 25.5584 10.483 24.8958 11.251C24.2483 12.019 23.9245 13.0732 23.9245 14.4134C23.9245 15.7236 24.2558 16.7702 24.9184 17.5533C25.581 18.3213 26.477 18.7053 27.6065 18.7053Z" fill="var(--fill-0, #0B3668)"/>
<path d="M39.7693 20.4898C38.6699 20.4898 37.6986 20.2338 36.8553 19.7218C36.012 19.1947 35.3494 18.4794 34.8675 17.5758C34.3856 16.6723 34.1447 15.6332 34.1447 14.4586C34.1447 13.284 34.3781 12.2524 34.8449 11.3639C35.3268 10.4604 35.9969 9.76013 36.8553 9.26318C37.7137 8.76623 38.7001 8.51775 39.8144 8.51775C40.8836 8.51775 41.8098 8.75117 42.5929 9.218C43.391 9.68484 44.0009 10.3399 44.4226 11.1832C44.8593 12.0265 45.0776 13.0204 45.0776 14.1649C45.0776 14.3155 45.0701 14.4586 45.055 14.5941C45.055 14.7297 45.04 14.8803 45.0099 15.0459H35.5V13.5325H43.903L43.3157 14.3682C43.3157 12.9828 43.007 11.9211 42.3896 11.1832C41.7872 10.4303 40.9288 10.0538 39.8144 10.0538C38.6699 10.0538 37.7438 10.4529 37.036 11.251C36.3433 12.0341 35.9969 13.0957 35.9969 14.436C35.9969 15.8064 36.3433 16.9057 37.036 17.734C37.7438 18.5472 38.685 18.9538 39.8596 18.9538C40.5975 18.9538 41.2451 18.7956 41.8023 18.4794C42.3594 18.1481 42.766 17.6813 43.022 17.0789H44.7388C44.3623 18.133 43.7298 18.9688 42.8413 19.5862C41.9679 20.1886 40.9439 20.4898 39.7693 20.4898Z" fill="var(--fill-0, #0B3668)"/>
<path d="M46.2173 20.2639V8.74364H47.9115V11.4543H48.0244V20.2639H46.2173ZM53.9878 20.2639V12.6289C53.9878 11.7555 53.7921 11.1155 53.4005 10.7089C53.009 10.3023 52.4443 10.099 51.7064 10.099C51.0136 10.099 50.3887 10.2646 49.8315 10.5959C49.2743 10.9272 48.8301 11.3865 48.4988 11.9738C48.1825 12.5611 48.0244 13.2463 48.0244 14.0294L47.7307 11.2962C48.1223 10.4378 48.7096 9.76013 49.4927 9.26318C50.2757 8.76623 51.1266 8.51775 52.0452 8.51775C53.1596 8.51775 54.0631 8.84905 54.7558 9.51166C55.4486 10.1592 55.7949 11.0402 55.7949 12.1545V20.2639H53.9878ZM61.7584 20.2639V12.6289C61.7584 11.7555 61.5626 11.1155 61.1711 10.7089C60.7795 10.3023 60.2148 10.099 59.4769 10.099C58.7842 10.099 58.1592 10.2646 57.602 10.5959C57.0448 10.9272 56.6006 11.3865 56.2693 11.9738C55.9531 12.5611 55.7949 13.2463 55.7949 14.0294L55.3432 11.2962C55.7347 10.4378 56.3371 9.76013 57.1503 9.26318C57.9634 8.76623 58.8369 8.51775 59.7705 8.51775C60.8849 8.51775 61.796 8.84905 62.5038 9.51166C63.2116 10.1592 63.5655 11.0402 63.5655 12.1545V20.2639H61.7584Z" fill="var(--fill-0, #0B3668)"/>
<path d="M72.4642 20.2639C72.404 20.0079 72.3588 19.7142 72.3287 19.3829C72.3136 19.0516 72.3061 18.63 72.3061 18.118H72.1931V12.6063C72.1931 11.7329 71.9898 11.0929 71.5832 10.6863C71.1917 10.2646 70.5517 10.0538 69.6632 10.0538C68.7898 10.0538 68.0895 10.2345 67.5624 10.5959C67.0504 10.9423 66.7643 11.4392 66.7041 12.0868H64.9647C65.04 10.9724 65.5069 10.099 66.3652 9.46648C67.2236 8.83399 68.3455 8.51775 69.731 8.51775C71.1616 8.51775 72.2232 8.85658 72.916 9.53425C73.6087 10.2119 73.9551 11.2284 73.9551 12.5837V18.118C73.9551 18.4493 73.9776 18.7956 74.0228 19.1571C74.068 19.5034 74.1282 19.8724 74.2035 20.2639H72.4642ZM68.5112 20.4898C67.3215 20.4898 66.3728 20.2037 65.665 19.6314C64.9723 19.0441 64.6259 18.246 64.6259 17.237C64.6259 16.228 64.9723 15.445 65.665 14.8878C66.3577 14.3306 67.3667 13.9391 68.6919 13.7132L72.7127 13.0355V14.5264L68.9629 15.1137C68.1196 15.2492 67.4796 15.4751 67.0429 15.7913C66.6062 16.1076 66.3878 16.5669 66.3878 17.1692C66.3878 17.7566 66.5836 18.2008 66.9751 18.502C67.3817 18.8032 67.9766 18.9538 68.7596 18.9538C69.7686 18.9538 70.5893 18.7279 71.2218 18.2761C71.8694 17.8093 72.1931 17.2069 72.1931 16.469L72.4868 18.0728C72.2458 18.8408 71.7715 19.4356 71.0637 19.8573C70.371 20.279 69.5201 20.4898 68.5112 20.4898Z" fill="var(--fill-0, #0B3668)"/>
<path d="M80.1564 20.4672C78.8763 20.4672 77.9427 20.1811 77.3554 19.6088C76.7831 19.0215 76.497 18.1782 76.497 17.0789V6.05558L78.3041 5.37791V17.0563C78.3041 17.7038 78.4697 18.1782 78.801 18.4794C79.1323 18.7806 79.6745 18.9312 80.4274 18.9312C80.7286 18.9312 80.9846 18.9161 81.1955 18.886C81.4213 18.8408 81.6021 18.7881 81.7376 18.7279V20.2639C81.587 20.3241 81.3686 20.3693 81.0825 20.3994C80.8114 20.4446 80.5027 20.4672 80.1564 20.4672ZM74.1252 10.2797V8.74364H81.7376V10.2797H74.1252Z" fill="var(--fill-0, #0B3668)"/>
<path d="M86.9604 20.4898C85.861 20.4898 84.8897 20.2338 84.0464 19.7218C83.2031 19.1947 82.5405 18.4794 82.0586 17.5758C81.5767 16.6723 81.3357 15.6332 81.3357 14.4586C81.3357 13.284 81.5692 12.2524 82.036 11.3639C82.5179 10.4604 83.188 9.76013 84.0464 9.26318C84.9048 8.76623 85.8911 8.51775 87.0055 8.51775C88.0747 8.51775 89.0009 8.75117 89.7839 9.218C90.5821 9.68484 91.192 10.3399 91.6136 11.1832C92.0503 12.0265 92.2687 13.0204 92.2687 14.1649C92.2687 14.3155 92.2612 14.4586 92.2461 14.5941C92.2461 14.7297 92.2311 14.8803 92.2009 15.0459H82.6911V13.5325H91.0941L90.5068 14.3682C90.5068 12.9828 90.1981 11.9211 89.5806 11.1832C88.9783 10.4303 88.1199 10.0538 87.0055 10.0538C85.861 10.0538 84.9349 10.4529 84.2271 11.251C83.5344 12.0341 83.188 13.0957 83.188 14.436C83.188 15.8064 83.5344 16.9057 84.2271 17.734C84.9349 18.5472 85.8761 18.9538 87.0507 18.9538C87.7886 18.9538 88.4362 18.7956 88.9933 18.4794C89.5505 18.1481 89.9571 17.6813 90.2131 17.0789H91.9299C91.5534 18.133 90.9209 18.9688 90.0324 19.5862C89.159 20.1886 88.135 20.4898 86.9604 20.4898Z" fill="var(--fill-0, #0B3668)"/>
</g>
</g>
</svg>
